<svg xmlns="http://www.w3.org/2000/svg" xmlns:xlink="http://www.w3.org/1999/xlink" width="625" zoomAndPan="magnify" viewBox="0 0 468.75 101.999999" height="136" preserveAspectRatio="xMidYMid meet" version="1.0"><defs><g/><clipPath id="fbefdb62fb"><path d="M 0 21.082031 L 66.945312 21.082031 L 66.945312 80.304688 L 0 80.304688 Z M 0 21.082031 " clip-rule="nonzero"/></clipPath></defs><g clip-path="url(#fbefdb62fb)"><path fill="#ffffff" d="M 33.261719 48.148438 L 27.890625 57.703125 L 16.742188 50.457031 L 33.261719 21.089844 L 49.78125 50.457031 L 38.636719 57.703125 Z M 33.261719 79.609375 L 43.882812 67.035156 L 49.890625 77.71875 L 51.308594 80.230469 L 66.53125 80.230469 L 53.019531 56.214844 L 57.820312 50.527344 L 51.960938 54.332031 L 51.34375 54.734375 L 33.261719 66.480469 L 15.183594 54.734375 L 14.5625 54.332031 L 8.710938 50.527344 L 13.507812 56.214844 L 0 80.230469 L 15.222656 80.230469 L 16.628906 77.71875 L 22.640625 67.035156 Z M 33.261719 79.609375 " fill-opacity="1" fill-rule="evenodd"/></g><g fill="#ffffff" fill-opacity="1"><g transform="translate(80.413733, 69.487119)"><g><path d="M 10.390625 -38.828125 L 19.78125 -9.328125 L 20.140625 -9.328125 L 29.546875 -38.828125 L 38.640625 -38.828125 L 25.25 0 L 14.671875 0 L 1.265625 -38.828125 Z M 10.390625 -38.828125 "/></g></g></g><g fill="#ffffff" fill-opacity="1"><g transform="translate(120.339225, 69.487119)"><g><path d="M 11.578125 -38.828125 L 11.578125 0 L 3.375 0 L 3.375 -38.828125 Z M 11.578125 -38.828125 "/></g></g></g><g fill="#ffffff" fill-opacity="1"><g transform="translate(135.316028, 69.487119)"><g><path d="M 3.375 0 L 3.375 -38.828125 L 29.546875 -38.828125 L 29.546875 -32.0625 L 11.578125 -32.0625 L 11.578125 -22.8125 L 28.1875 -22.8125 L 28.1875 -16.046875 L 11.578125 -16.046875 L 11.578125 -6.765625 L 29.609375 -6.765625 L 29.609375 0 Z M 3.375 0 "/></g></g></g><g fill="#ffffff" fill-opacity="1"><g transform="translate(168.018534, 69.487119)"><g><path d="M 1.890625 -32.0625 L 1.890625 -38.828125 L 33.78125 -38.828125 L 33.78125 -32.0625 L 21.90625 -32.0625 L 21.90625 0 L 13.78125 0 L 13.78125 -32.0625 Z M 1.890625 -32.0625 "/></g></g></g><g fill="#ffffff" fill-opacity="1"><g transform="translate(203.697445, 69.487119)"><g/></g></g><g fill="#ffffff" fill-opacity="1"><g transform="translate(216.076998, 69.487119)"><g><path d="M 18.921875 -38.828125 L 27.03125 -38.828125 L 27.03125 -11.75 C 27.03125 -9.25 26.472656 -7.078125 25.359375 -5.234375 C 24.242188 -3.398438 22.691406 -1.976562 20.703125 -0.96875 C 18.722656 0.03125 16.414062 0.53125 13.78125 0.53125 C 11.445312 0.53125 9.328125 0.113281 7.421875 -0.71875 C 5.515625 -1.550781 4.003906 -2.8125 2.890625 -4.5 C 1.785156 -6.195312 1.238281 -8.335938 1.25 -10.921875 L 9.421875 -10.921875 C 9.441406 -9.378906 9.882812 -8.179688 10.75 -7.328125 C 11.625 -6.472656 12.773438 -6.046875 14.203125 -6.046875 C 17.328125 -6.046875 18.898438 -7.945312 18.921875 -11.75 Z M 18.921875 -38.828125 "/></g></g></g><g fill="#ffffff" fill-opacity="1"><g transform="translate(246.504545, 69.487119)"><g><path d="M 39.0625 -19.421875 C 39.0625 -15.179688 38.257812 -11.578125 36.65625 -8.609375 C 35.0625 -5.640625 32.890625 -3.375 30.140625 -1.8125 C 27.398438 -0.25 24.3125 0.53125 20.875 0.53125 C 17.425781 0.53125 14.328125 -0.25 11.578125 -1.8125 C 8.835938 -3.382812 6.671875 -5.65625 5.078125 -8.625 C 3.484375 -11.601562 2.6875 -15.203125 2.6875 -19.421875 C 2.6875 -23.648438 3.484375 -27.25 5.078125 -30.21875 C 6.671875 -33.1875 8.835938 -35.453125 11.578125 -37.015625 C 14.328125 -38.578125 17.425781 -39.359375 20.875 -39.359375 C 24.3125 -39.359375 27.398438 -38.578125 30.140625 -37.015625 C 32.890625 -35.453125 35.0625 -33.1875 36.65625 -30.21875 C 38.257812 -27.25 39.0625 -23.648438 39.0625 -19.421875 Z M 30.734375 -19.421875 C 30.734375 -23.535156 29.832031 -26.675781 28.03125 -28.84375 C 26.238281 -31.007812 23.851562 -32.09375 20.875 -32.09375 C 17.894531 -32.09375 15.503906 -31.007812 13.703125 -28.84375 C 11.910156 -26.675781 11.015625 -23.535156 11.015625 -19.421875 C 11.015625 -15.304688 11.910156 -12.160156 13.703125 -9.984375 C 15.503906 -7.816406 17.894531 -6.734375 20.875 -6.734375 C 23.851562 -6.734375 26.238281 -7.816406 28.03125 -9.984375 C 29.832031 -12.160156 30.734375 -15.304688 30.734375 -19.421875 Z M 30.734375 -19.421875 "/></g></g></g><g fill="#ffffff" fill-opacity="1"><g transform="translate(288.250009, 69.487119)"><g><path d="M 3.375 0 L 3.375 -38.828125 L 18.921875 -38.828125 C 23.203125 -38.828125 26.421875 -37.894531 28.578125 -36.03125 C 30.734375 -34.164062 31.8125 -31.78125 31.8125 -28.875 C 31.8125 -26.582031 31.144531 -24.734375 29.8125 -23.328125 C 28.488281 -21.921875 26.816406 -20.988281 24.796875 -20.53125 L 24.796875 -20.15625 C 26.273438 -20.09375 27.660156 -19.675781 28.953125 -18.90625 C 30.253906 -18.132812 31.304688 -17.054688 32.109375 -15.671875 C 32.921875 -14.296875 33.328125 -12.648438 33.328125 -10.734375 C 33.328125 -8.671875 32.816406 -6.828125 31.796875 -5.203125 C 30.785156 -3.585938 29.285156 -2.316406 27.296875 -1.390625 C 25.316406 -0.460938 22.875 0 19.96875 0 Z M 11.578125 -6.71875 L 18.28125 -6.71875 C 20.582031 -6.71875 22.253906 -7.15625 23.296875 -8.03125 C 24.335938 -8.914062 24.859375 -10.085938 24.859375 -11.546875 C 24.859375 -13.148438 24.285156 -14.460938 23.140625 -15.484375 C 21.992188 -16.515625 20.4375 -17.03125 18.46875 -17.03125 L 11.578125 -17.03125 Z M 11.578125 -22.578125 L 17.671875 -22.578125 C 19.347656 -22.578125 20.742188 -23.015625 21.859375 -23.890625 C 22.972656 -24.773438 23.53125 -25.984375 23.53125 -27.515625 C 23.53125 -28.910156 23.03125 -30.035156 22.03125 -30.890625 C 21.039062 -31.753906 19.640625 -32.1875 17.828125 -32.1875 L 11.578125 -32.1875 Z M 11.578125 -22.578125 "/></g></g></g><g fill="#ffffff" fill-opacity="1"><g transform="translate(323.530786, 69.487119)"><g/></g></g><g fill="#ffffff" fill-opacity="1"><g transform="translate(335.910338, 69.487119)"><g><path d="M 27.421875 -38.828125 L 35.5625 -38.828125 L 35.5625 -13.15625 C 35.5625 -10.226562 34.875 -7.742188 33.5 -5.703125 C 32.125 -3.660156 30.222656 -2.109375 27.796875 -1.046875 C 25.378906 0.015625 22.601562 0.546875 19.46875 0.546875 C 16.332031 0.546875 13.550781 0.015625 11.125 -1.046875 C 8.695312 -2.109375 6.796875 -3.660156 5.421875 -5.703125 C 4.054688 -7.742188 3.375 -10.226562 3.375 -13.15625 L 3.375 -38.828125 L 11.578125 -38.828125 L 11.578125 -13.4375 C 11.578125 -11.363281 12.328125 -9.734375 13.828125 -8.546875 C 15.328125 -7.359375 17.207031 -6.765625 19.46875 -6.765625 C 21.769531 -6.765625 23.671875 -7.359375 25.171875 -8.546875 C 26.671875 -9.734375 27.421875 -11.363281 27.421875 -13.4375 Z M 27.421875 -38.828125 "/></g></g></g><g fill="#ffffff" fill-opacity="1"><g transform="translate(374.850026, 69.487119)"><g><path d="M 24.4375 -27.65625 C 24.289062 -29.1875 23.632812 -30.375 22.46875 -31.21875 C 21.3125 -32.070312 19.753906 -32.5 17.796875 -32.5 C 15.785156 -32.5 14.242188 -32.085938 13.171875 -31.265625 C 12.097656 -30.441406 11.5625 -29.40625 11.5625 -28.15625 C 11.539062 -26.757812 12.140625 -25.703125 13.359375 -24.984375 C 14.578125 -24.273438 16.023438 -23.726562 17.703125 -23.34375 L 21.203125 -22.5 C 23.453125 -22 25.453125 -21.265625 27.203125 -20.296875 C 28.953125 -19.335938 30.328125 -18.101562 31.328125 -16.59375 C 32.335938 -15.082031 32.84375 -13.25 32.84375 -11.09375 C 32.820312 -7.539062 31.488281 -4.710938 28.84375 -2.609375 C 26.195312 -0.503906 22.503906 0.546875 17.765625 0.546875 C 13.046875 0.546875 9.285156 -0.523438 6.484375 -2.671875 C 3.679688 -4.816406 2.226562 -7.988281 2.125 -12.1875 L 10.0625 -12.1875 C 10.207031 -10.238281 10.976562 -8.773438 12.375 -7.796875 C 13.769531 -6.816406 15.535156 -6.328125 17.671875 -6.328125 C 19.753906 -6.328125 21.414062 -6.769531 22.65625 -7.65625 C 23.90625 -8.539062 24.535156 -9.691406 24.546875 -11.109375 C 24.535156 -12.421875 23.960938 -13.429688 22.828125 -14.140625 C 21.691406 -14.847656 20.066406 -15.457031 17.953125 -15.96875 L 13.734375 -17.03125 C 10.453125 -17.8125 7.863281 -19.054688 5.96875 -20.765625 C 4.070312 -22.472656 3.128906 -24.753906 3.140625 -27.609375 C 3.128906 -29.953125 3.757812 -32.003906 5.03125 -33.765625 C 6.300781 -35.535156 8.046875 -36.910156 10.265625 -37.890625 C 12.492188 -38.867188 15.023438 -39.359375 17.859375 -39.359375 C 20.742188 -39.359375 23.257812 -38.863281 25.40625 -37.875 C 27.5625 -36.894531 29.238281 -35.523438 30.4375 -33.765625 C 31.644531 -32.003906 32.269531 -29.96875 32.3125 -27.65625 Z M 24.4375 -27.65625 "/></g></g></g><g fill="#ffffff" fill-opacity="1"><g transform="translate(409.808536, 69.487119)"><g><path d="M 10.0625 0 L 1.265625 0 L 14.671875 -38.828125 L 25.25 -38.828125 L 38.640625 0 L 29.84375 0 L 26.953125 -8.859375 L 12.953125 -8.859375 Z M 15.03125 -15.265625 L 24.890625 -15.265625 L 20.109375 -29.953125 L 19.8125 -29.953125 Z M 15.03125 -15.265625 "/></g></g></g></svg>